<svg xmlns="http://www.w3.org/2000/svg" xmlns:xlink="http://www.w3.org/1999/xlink" width="300" height="200" viewBox="0 0 300 200">
  <defs>
    <style>
      .cls-1 {
        fill: none;
      }

      .cls-2 {
        fill: rgba(182,180,180,1);
      }

      .cls-3 {
        opacity: 0.5;
      }

      .cls-4 {
        clip-path: url(#clip-path);
      }

      .cls-5 {
        fill: #1a1311;
      }
    </style>
    <clipPath id="clip-path">
      <rect id="矩形_493" data-name="矩形 493" class="cls-1" width="70.413" height="68.231"/>
    </clipPath>
  </defs>
  <g id="组_1813" data-name="组 1813" transform="translate(1943 -1624)">
    <rect id="矩形_492" data-name="矩形 492" class="cls-2" width="300" height="200" transform="translate(-1943 1624)"/>
    <g id="组_1811" data-name="组 1811" class="cls-3" transform="translate(-1828 1690)">
      <g id="组_1810" data-name="组 1810" class="cls-4" transform="translate(0 0)">
        <path id="路径_2408" data-name="路径 2408" class="cls-5" d="M12.667,0h45.08a12.828,12.828,0,0,1,8.959,3.672,12.781,12.781,0,0,1,3.708,8.977V41.212A12.659,12.659,0,0,1,57.746,53.861H12.667a12.666,12.666,0,0,1-8.941-3.708A12.545,12.545,0,0,1,0,41.212V12.649A12.629,12.629,0,0,1,12.667,0m45.08,5.411H12.667A7.294,7.294,0,0,0,7.54,7.558a7.19,7.19,0,0,0-2.111,5.092V41.212a7.238,7.238,0,0,0,7.238,7.256h45.08a7.33,7.33,0,0,0,7.274-7.256V12.649a7.362,7.362,0,0,0-7.274-7.238" transform="translate(0 -0.003)"/>
        <path id="路径_2409" data-name="路径 2409" class="cls-5" d="M1.675,6.679A1.64,1.64,0,0,1,.061,5.029,1.609,1.609,0,0,1,1.675,3.415H16.7a1.609,1.609,0,0,1,1.614,1.614A1.64,1.64,0,0,1,16.7,6.679Zm25.866,0h0a1.64,1.64,0,0,1-1.614-1.65,1.609,1.609,0,0,1,1.614-1.614H66.678a1.628,1.628,0,0,1,1.65,1.614,1.658,1.658,0,0,1-1.65,1.65Z" transform="translate(1.021 57.167)"/>
        <path id="路径_2410" data-name="路径 2410" class="cls-5" d="M6.97,3.164a6.031,6.031,0,0,1,4.293,1.774v.018a6,6,0,0,1,1.792,4.276A6.027,6.027,0,0,1,6.97,15.263a6.022,6.022,0,0,1-4.258-1.739A5.947,5.947,0,0,1,.938,9.231,5.848,5.848,0,0,1,2.712,4.956V4.938A5.979,5.979,0,0,1,6.97,3.164m2,4.08h0a2.827,2.827,0,1,0,.816,1.987,2.809,2.809,0,0,0-.816-1.987" transform="translate(15.703 52.965)"/>
        <path id="路径_2411" data-name="路径 2411" class="cls-5" d="M27.218,17.318l-11.762,6.83-11.8,6.759a1.616,1.616,0,0,1-2.235-.568,2.045,2.045,0,0,1-.2-.816V2.291A1.624,1.624,0,0,1,2.842.659a1.867,1.867,0,0,1,.9.266L15.456,7.7l.071.053,11.709,6.777a1.575,1.575,0,0,1,.6,2.2,1.516,1.516,0,0,1-.621.585M13.824,21.345h0l9.4-5.429-9.332-5.375-.071-.035L4.475,5.076V26.72Z" transform="translate(20.558 11.029)"/>
      </g>
    </g>
  </g>
</svg>
